<mxfile host="app.diagrams.net" modified="2023-10-30T09:31:10.378Z" agent="Mozilla/5.0 (Macintosh; Intel Mac OS X 10_15_7) AppleWebKit/537.36 (KHTML, like Gecko) Chrome/118.0.0.0 Safari/537.36" etag="ylsTyKx3lIt_ILcdcEX4" version="22.0.8" type="device">
  <diagram id="C5RBs43oDa-KdzZeNtuy" name="Page-1">
    <mxGraphModel dx="954" dy="591" grid="1" gridSize="10" guides="1" tooltips="1" connect="1" arrows="1" fold="1" page="1" pageScale="1" pageWidth="827" pageHeight="1169" math="0" shadow="0">
      <root>
        <mxCell id="WIyWlLk6GJQsqaUBKTNV-0" />
        <mxCell id="WIyWlLk6GJQsqaUBKTNV-1" parent="WIyWlLk6GJQsqaUBKTNV-0" />
        <mxCell id="hFodxx1ACkVAWCvASa_z-27" value="" style="edgeStyle=orthogonalEdgeStyle;rounded=0;orthogonalLoop=1;jettySize=auto;html=1;" edge="1" parent="WIyWlLk6GJQsqaUBKTNV-1" source="WIyWlLk6GJQsqaUBKTNV-3" target="hFodxx1ACkVAWCvASa_z-1">
          <mxGeometry relative="1" as="geometry" />
        </mxCell>
        <mxCell id="hFodxx1ACkVAWCvASa_z-36" style="edgeStyle=orthogonalEdgeStyle;rounded=0;orthogonalLoop=1;jettySize=auto;html=1;" edge="1" parent="WIyWlLk6GJQsqaUBKTNV-1" source="WIyWlLk6GJQsqaUBKTNV-3" target="hFodxx1ACkVAWCvASa_z-20">
          <mxGeometry relative="1" as="geometry" />
        </mxCell>
        <mxCell id="WIyWlLk6GJQsqaUBKTNV-3" value="Query" style="rounded=1;whiteSpace=wrap;html=1;fontSize=12;glass=0;strokeWidth=1;shadow=0;" parent="WIyWlLk6GJQsqaUBKTNV-1" vertex="1">
          <mxGeometry x="180" y="40" width="120" height="40" as="geometry" />
        </mxCell>
        <mxCell id="hFodxx1ACkVAWCvASa_z-31" value="" style="edgeStyle=orthogonalEdgeStyle;rounded=0;orthogonalLoop=1;jettySize=auto;html=1;" edge="1" parent="WIyWlLk6GJQsqaUBKTNV-1" source="WIyWlLk6GJQsqaUBKTNV-10" target="hFodxx1ACkVAWCvASa_z-9">
          <mxGeometry relative="1" as="geometry" />
        </mxCell>
        <mxCell id="hFodxx1ACkVAWCvASa_z-34" value="No" style="edgeLabel;html=1;align=center;verticalAlign=middle;resizable=0;points=[];" vertex="1" connectable="0" parent="hFodxx1ACkVAWCvASa_z-31">
          <mxGeometry x="-0.0275" y="-1" relative="1" as="geometry">
            <mxPoint x="11" y="-3" as="offset" />
          </mxGeometry>
        </mxCell>
        <mxCell id="hFodxx1ACkVAWCvASa_z-32" value="" style="edgeStyle=orthogonalEdgeStyle;rounded=0;orthogonalLoop=1;jettySize=auto;html=1;" edge="1" parent="WIyWlLk6GJQsqaUBKTNV-1" source="WIyWlLk6GJQsqaUBKTNV-10" target="hFodxx1ACkVAWCvASa_z-4">
          <mxGeometry relative="1" as="geometry" />
        </mxCell>
        <mxCell id="hFodxx1ACkVAWCvASa_z-35" value="Yes" style="edgeLabel;html=1;align=center;verticalAlign=middle;resizable=0;points=[];" vertex="1" connectable="0" parent="hFodxx1ACkVAWCvASa_z-32">
          <mxGeometry y="-1" relative="1" as="geometry">
            <mxPoint y="-12" as="offset" />
          </mxGeometry>
        </mxCell>
        <mxCell id="WIyWlLk6GJQsqaUBKTNV-10" value="Need&lt;br&gt;Search" style="rhombus;whiteSpace=wrap;html=1;shadow=0;fontFamily=Helvetica;fontSize=12;align=center;strokeWidth=1;spacing=6;spacingTop=-4;" parent="WIyWlLk6GJQsqaUBKTNV-1" vertex="1">
          <mxGeometry x="190" y="301" width="100" height="80" as="geometry" />
        </mxCell>
        <mxCell id="hFodxx1ACkVAWCvASa_z-30" value="" style="edgeStyle=orthogonalEdgeStyle;rounded=0;orthogonalLoop=1;jettySize=auto;html=1;" edge="1" parent="WIyWlLk6GJQsqaUBKTNV-1" source="hFodxx1ACkVAWCvASa_z-0" target="WIyWlLk6GJQsqaUBKTNV-10">
          <mxGeometry relative="1" as="geometry" />
        </mxCell>
        <mxCell id="hFodxx1ACkVAWCvASa_z-0" value="Rewritten Query" style="shape=parallelogram;perimeter=parallelogramPerimeter;whiteSpace=wrap;html=1;fixedSize=1;" vertex="1" parent="WIyWlLk6GJQsqaUBKTNV-1">
          <mxGeometry x="175" y="201" width="130" height="40" as="geometry" />
        </mxCell>
        <mxCell id="hFodxx1ACkVAWCvASa_z-28" value="" style="edgeStyle=orthogonalEdgeStyle;rounded=0;orthogonalLoop=1;jettySize=auto;html=1;" edge="1" parent="WIyWlLk6GJQsqaUBKTNV-1" source="hFodxx1ACkVAWCvASa_z-1" target="hFodxx1ACkVAWCvASa_z-0">
          <mxGeometry relative="1" as="geometry" />
        </mxCell>
        <mxCell id="hFodxx1ACkVAWCvASa_z-1" value="Rewrite according&lt;br&gt;to chat history" style="rounded=0;whiteSpace=wrap;html=1;" vertex="1" parent="WIyWlLk6GJQsqaUBKTNV-1">
          <mxGeometry x="180" y="120" width="120" height="40" as="geometry" />
        </mxCell>
        <mxCell id="hFodxx1ACkVAWCvASa_z-33" value="" style="edgeStyle=orthogonalEdgeStyle;rounded=0;orthogonalLoop=1;jettySize=auto;html=1;" edge="1" parent="WIyWlLk6GJQsqaUBKTNV-1" source="hFodxx1ACkVAWCvASa_z-4" target="hFodxx1ACkVAWCvASa_z-6">
          <mxGeometry relative="1" as="geometry" />
        </mxCell>
        <mxCell id="hFodxx1ACkVAWCvASa_z-4" value="Search Internet" style="rounded=0;whiteSpace=wrap;html=1;" vertex="1" parent="WIyWlLk6GJQsqaUBKTNV-1">
          <mxGeometry x="350" y="321" width="100" height="40" as="geometry" />
        </mxCell>
        <mxCell id="hFodxx1ACkVAWCvASa_z-14" style="edgeStyle=orthogonalEdgeStyle;rounded=0;orthogonalLoop=1;jettySize=auto;html=1;exitX=0.5;exitY=1;exitDx=0;exitDy=0;entryX=0.5;entryY=0;entryDx=0;entryDy=0;" edge="1" parent="WIyWlLk6GJQsqaUBKTNV-1" source="hFodxx1ACkVAWCvASa_z-6" target="hFodxx1ACkVAWCvASa_z-7">
          <mxGeometry relative="1" as="geometry" />
        </mxCell>
        <mxCell id="hFodxx1ACkVAWCvASa_z-6" value="Search Results (Snippets and Web Pages)" style="shape=parallelogram;perimeter=parallelogramPerimeter;whiteSpace=wrap;html=1;fixedSize=1;" vertex="1" parent="WIyWlLk6GJQsqaUBKTNV-1">
          <mxGeometry x="494" y="311" width="127" height="60" as="geometry" />
        </mxCell>
        <mxCell id="hFodxx1ACkVAWCvASa_z-15" style="edgeStyle=orthogonalEdgeStyle;rounded=0;orthogonalLoop=1;jettySize=auto;html=1;exitX=0.5;exitY=1;exitDx=0;exitDy=0;entryX=0.5;entryY=0;entryDx=0;entryDy=0;entryPerimeter=0;" edge="1" parent="WIyWlLk6GJQsqaUBKTNV-1" source="hFodxx1ACkVAWCvASa_z-7" target="hFodxx1ACkVAWCvASa_z-8">
          <mxGeometry relative="1" as="geometry" />
        </mxCell>
        <mxCell id="hFodxx1ACkVAWCvASa_z-7" value="Condense" style="rounded=0;whiteSpace=wrap;html=1;" vertex="1" parent="WIyWlLk6GJQsqaUBKTNV-1">
          <mxGeometry x="494" y="401" width="120" height="40" as="geometry" />
        </mxCell>
        <mxCell id="hFodxx1ACkVAWCvASa_z-16" style="edgeStyle=orthogonalEdgeStyle;rounded=0;orthogonalLoop=1;jettySize=auto;html=1;exitX=0;exitY=0.5;exitDx=0;exitDy=0;entryX=1;entryY=0.5;entryDx=0;entryDy=0;" edge="1" parent="WIyWlLk6GJQsqaUBKTNV-1" source="hFodxx1ACkVAWCvASa_z-8" target="hFodxx1ACkVAWCvASa_z-9">
          <mxGeometry relative="1" as="geometry" />
        </mxCell>
        <mxCell id="hFodxx1ACkVAWCvASa_z-8" value="Relevant&lt;br&gt;Web Content" style="shape=parallelogram;perimeter=parallelogramPerimeter;whiteSpace=wrap;html=1;fixedSize=1;" vertex="1" parent="WIyWlLk6GJQsqaUBKTNV-1">
          <mxGeometry x="490.5" y="470" width="127" height="40" as="geometry" />
        </mxCell>
        <mxCell id="hFodxx1ACkVAWCvASa_z-17" style="edgeStyle=orthogonalEdgeStyle;rounded=0;orthogonalLoop=1;jettySize=auto;html=1;exitX=0.5;exitY=1;exitDx=0;exitDy=0;" edge="1" parent="WIyWlLk6GJQsqaUBKTNV-1" source="hFodxx1ACkVAWCvASa_z-9" target="hFodxx1ACkVAWCvASa_z-10">
          <mxGeometry relative="1" as="geometry" />
        </mxCell>
        <mxCell id="hFodxx1ACkVAWCvASa_z-9" value="Create Prompt" style="rounded=0;whiteSpace=wrap;html=1;" vertex="1" parent="WIyWlLk6GJQsqaUBKTNV-1">
          <mxGeometry x="180" y="470" width="120" height="40" as="geometry" />
        </mxCell>
        <mxCell id="hFodxx1ACkVAWCvASa_z-18" style="edgeStyle=orthogonalEdgeStyle;rounded=0;orthogonalLoop=1;jettySize=auto;html=1;exitX=0.5;exitY=1;exitDx=0;exitDy=0;entryX=0.5;entryY=0;entryDx=0;entryDy=0;" edge="1" parent="WIyWlLk6GJQsqaUBKTNV-1" source="hFodxx1ACkVAWCvASa_z-10" target="hFodxx1ACkVAWCvASa_z-11">
          <mxGeometry relative="1" as="geometry" />
        </mxCell>
        <mxCell id="hFodxx1ACkVAWCvASa_z-10" value="Prompt" style="shape=parallelogram;perimeter=parallelogramPerimeter;whiteSpace=wrap;html=1;fixedSize=1;" vertex="1" parent="WIyWlLk6GJQsqaUBKTNV-1">
          <mxGeometry x="176.5" y="550" width="127" height="39" as="geometry" />
        </mxCell>
        <mxCell id="hFodxx1ACkVAWCvASa_z-39" value="" style="edgeStyle=orthogonalEdgeStyle;rounded=0;orthogonalLoop=1;jettySize=auto;html=1;" edge="1" parent="WIyWlLk6GJQsqaUBKTNV-1" source="hFodxx1ACkVAWCvASa_z-11" target="hFodxx1ACkVAWCvASa_z-38">
          <mxGeometry relative="1" as="geometry" />
        </mxCell>
        <mxCell id="hFodxx1ACkVAWCvASa_z-11" value="LLM Generate" style="rounded=0;whiteSpace=wrap;html=1;" vertex="1" parent="WIyWlLk6GJQsqaUBKTNV-1">
          <mxGeometry x="180" y="625.5" width="120" height="40" as="geometry" />
        </mxCell>
        <mxCell id="hFodxx1ACkVAWCvASa_z-29" value="" style="edgeStyle=orthogonalEdgeStyle;rounded=0;orthogonalLoop=1;jettySize=auto;html=1;" edge="1" parent="WIyWlLk6GJQsqaUBKTNV-1" source="hFodxx1ACkVAWCvASa_z-20" target="hFodxx1ACkVAWCvASa_z-1">
          <mxGeometry relative="1" as="geometry" />
        </mxCell>
        <mxCell id="hFodxx1ACkVAWCvASa_z-20" value="Chat History" style="shape=cylinder3;whiteSpace=wrap;html=1;boundedLbl=1;backgroundOutline=1;size=15;" vertex="1" parent="WIyWlLk6GJQsqaUBKTNV-1">
          <mxGeometry x="30" y="100" width="90" height="80" as="geometry" />
        </mxCell>
        <mxCell id="hFodxx1ACkVAWCvASa_z-37" style="edgeStyle=orthogonalEdgeStyle;rounded=0;orthogonalLoop=1;jettySize=auto;html=1;exitX=0;exitY=0.5;exitDx=0;exitDy=0;entryX=0.5;entryY=1;entryDx=0;entryDy=0;entryPerimeter=0;" edge="1" parent="WIyWlLk6GJQsqaUBKTNV-1" source="hFodxx1ACkVAWCvASa_z-38" target="hFodxx1ACkVAWCvASa_z-20">
          <mxGeometry relative="1" as="geometry">
            <mxPoint x="186.5" y="871" as="sourcePoint" />
          </mxGeometry>
        </mxCell>
        <mxCell id="hFodxx1ACkVAWCvASa_z-38" value="LLM Response" style="rounded=1;whiteSpace=wrap;html=1;" vertex="1" parent="WIyWlLk6GJQsqaUBKTNV-1">
          <mxGeometry x="180" y="700" width="120" height="40" as="geometry" />
        </mxCell>
        <mxCell id="hFodxx1ACkVAWCvASa_z-42" value="" style="edgeStyle=orthogonalEdgeStyle;rounded=0;orthogonalLoop=1;jettySize=auto;html=1;" edge="1" parent="WIyWlLk6GJQsqaUBKTNV-1" source="hFodxx1ACkVAWCvASa_z-40" target="hFodxx1ACkVAWCvASa_z-4">
          <mxGeometry relative="1" as="geometry">
            <mxPoint x="400" y="260" as="sourcePoint" />
          </mxGeometry>
        </mxCell>
        <mxCell id="hFodxx1ACkVAWCvASa_z-58" value="" style="edgeStyle=orthogonalEdgeStyle;rounded=0;orthogonalLoop=1;jettySize=auto;html=1;" edge="1" parent="WIyWlLk6GJQsqaUBKTNV-1" target="hFodxx1ACkVAWCvASa_z-40">
          <mxGeometry relative="1" as="geometry">
            <mxPoint x="400" y="260" as="sourcePoint" />
            <mxPoint x="400" y="321" as="targetPoint" />
          </mxGeometry>
        </mxCell>
        <mxCell id="hFodxx1ACkVAWCvASa_z-40" value="" style="image;aspect=fixed;perimeter=ellipsePerimeter;html=1;align=center;shadow=0;dashed=0;spacingTop=3;image=img/lib/active_directory/internet_globe.svg;" vertex="1" parent="WIyWlLk6GJQsqaUBKTNV-1">
          <mxGeometry x="375" y="230" width="50" height="50" as="geometry" />
        </mxCell>
        <mxCell id="hFodxx1ACkVAWCvASa_z-61" value="" style="group;dashed=1;dashPattern=8 8;strokeColor=none;fillColor=none;" vertex="1" connectable="0" parent="WIyWlLk6GJQsqaUBKTNV-1">
          <mxGeometry x="370" y="540" width="440" height="420" as="geometry" />
        </mxCell>
        <mxCell id="hFodxx1ACkVAWCvASa_z-43" value="&lt;h3 style=&quot;&quot;&gt;&lt;span style=&quot;background-color: initial;&quot;&gt;Condense&lt;/span&gt;&lt;/h3&gt;" style="rounded=0;whiteSpace=wrap;html=1;fillColor=none;align=left;verticalAlign=top;container=0;" vertex="1" parent="hFodxx1ACkVAWCvASa_z-61">
          <mxGeometry width="440" height="420" as="geometry" />
        </mxCell>
        <mxCell id="hFodxx1ACkVAWCvASa_z-44" value="Search Results" style="rounded=1;whiteSpace=wrap;html=1;container=0;" vertex="1" parent="hFodxx1ACkVAWCvASa_z-61">
          <mxGeometry x="150" y="30" width="120" height="40" as="geometry" />
        </mxCell>
        <mxCell id="hFodxx1ACkVAWCvASa_z-45" value="Vector Database" style="shape=cylinder3;whiteSpace=wrap;html=1;boundedLbl=1;backgroundOutline=1;size=15;container=0;" vertex="1" parent="hFodxx1ACkVAWCvASa_z-61">
          <mxGeometry x="20" y="260" width="100" height="80" as="geometry" />
        </mxCell>
        <mxCell id="hFodxx1ACkVAWCvASa_z-46" value="Query" style="shape=parallelogram;perimeter=parallelogramPerimeter;whiteSpace=wrap;html=1;fixedSize=1;container=0;" vertex="1" parent="hFodxx1ACkVAWCvASa_z-61">
          <mxGeometry x="310" y="280" width="120" height="40" as="geometry" />
        </mxCell>
        <mxCell id="hFodxx1ACkVAWCvASa_z-47" value="Split" style="rounded=0;whiteSpace=wrap;html=1;container=0;" vertex="1" parent="hFodxx1ACkVAWCvASa_z-61">
          <mxGeometry x="150" y="110" width="120" height="40" as="geometry" />
        </mxCell>
        <mxCell id="hFodxx1ACkVAWCvASa_z-49" value="" style="edgeStyle=orthogonalEdgeStyle;rounded=0;orthogonalLoop=1;jettySize=auto;html=1;" edge="1" parent="hFodxx1ACkVAWCvASa_z-61" source="hFodxx1ACkVAWCvASa_z-44" target="hFodxx1ACkVAWCvASa_z-47">
          <mxGeometry relative="1" as="geometry" />
        </mxCell>
        <mxCell id="hFodxx1ACkVAWCvASa_z-51" style="edgeStyle=orthogonalEdgeStyle;rounded=0;orthogonalLoop=1;jettySize=auto;html=1;exitX=0;exitY=0.5;exitDx=0;exitDy=0;" edge="1" parent="hFodxx1ACkVAWCvASa_z-61" source="hFodxx1ACkVAWCvASa_z-48" target="hFodxx1ACkVAWCvASa_z-45">
          <mxGeometry relative="1" as="geometry" />
        </mxCell>
        <mxCell id="hFodxx1ACkVAWCvASa_z-48" value="Text with Overlap" style="shape=parallelogram;perimeter=parallelogramPerimeter;whiteSpace=wrap;html=1;fixedSize=1;container=0;" vertex="1" parent="hFodxx1ACkVAWCvASa_z-61">
          <mxGeometry x="150" y="190" width="120" height="40" as="geometry" />
        </mxCell>
        <mxCell id="hFodxx1ACkVAWCvASa_z-50" value="" style="edgeStyle=orthogonalEdgeStyle;rounded=0;orthogonalLoop=1;jettySize=auto;html=1;" edge="1" parent="hFodxx1ACkVAWCvASa_z-61" source="hFodxx1ACkVAWCvASa_z-47" target="hFodxx1ACkVAWCvASa_z-48">
          <mxGeometry relative="1" as="geometry" />
        </mxCell>
        <mxCell id="hFodxx1ACkVAWCvASa_z-52" value="Relevant Content" style="rounded=1;whiteSpace=wrap;html=1;container=0;" vertex="1" parent="hFodxx1ACkVAWCvASa_z-61">
          <mxGeometry x="150" y="350" width="120" height="40" as="geometry" />
        </mxCell>
        <mxCell id="hFodxx1ACkVAWCvASa_z-57" value="" style="edgeStyle=orthogonalEdgeStyle;rounded=0;orthogonalLoop=1;jettySize=auto;html=1;" edge="1" parent="hFodxx1ACkVAWCvASa_z-61" source="hFodxx1ACkVAWCvASa_z-53" target="hFodxx1ACkVAWCvASa_z-52">
          <mxGeometry relative="1" as="geometry" />
        </mxCell>
        <mxCell id="hFodxx1ACkVAWCvASa_z-53" value="Semantic Search" style="rounded=0;whiteSpace=wrap;html=1;container=0;" vertex="1" parent="hFodxx1ACkVAWCvASa_z-61">
          <mxGeometry x="150" y="280" width="120" height="40" as="geometry" />
        </mxCell>
        <mxCell id="hFodxx1ACkVAWCvASa_z-55" value="" style="edgeStyle=orthogonalEdgeStyle;rounded=0;orthogonalLoop=1;jettySize=auto;html=1;" edge="1" parent="hFodxx1ACkVAWCvASa_z-61" source="hFodxx1ACkVAWCvASa_z-45" target="hFodxx1ACkVAWCvASa_z-53">
          <mxGeometry relative="1" as="geometry" />
        </mxCell>
        <mxCell id="hFodxx1ACkVAWCvASa_z-56" value="" style="edgeStyle=orthogonalEdgeStyle;rounded=0;orthogonalLoop=1;jettySize=auto;html=1;" edge="1" parent="hFodxx1ACkVAWCvASa_z-61" source="hFodxx1ACkVAWCvASa_z-46" target="hFodxx1ACkVAWCvASa_z-53">
          <mxGeometry relative="1" as="geometry" />
        </mxCell>
        <mxCell id="hFodxx1ACkVAWCvASa_z-54" value="" style="edgeStyle=orthogonalEdgeStyle;rounded=0;orthogonalLoop=1;jettySize=auto;html=1;" edge="1" parent="hFodxx1ACkVAWCvASa_z-61" source="hFodxx1ACkVAWCvASa_z-48" target="hFodxx1ACkVAWCvASa_z-53">
          <mxGeometry relative="1" as="geometry" />
        </mxCell>
        <mxCell id="hFodxx1ACkVAWCvASa_z-63" value="" style="html=1;shadow=0;dashed=0;align=center;verticalAlign=middle;shape=mxgraph.arrows2.bendArrow;dy=15;dx=38;notch=0;arrowHead=55;rounded=0;rotation=90;" vertex="1" parent="WIyWlLk6GJQsqaUBKTNV-1">
          <mxGeometry x="630" y="420" width="120" height="100" as="geometry" />
        </mxCell>
      </root>
    </mxGraphModel>
  </diagram>
</mxfile>
